<?xml version="1.0" encoding="utf-8"?>
<!-- Generator: Adobe Illustrator 25.2.3, SVG Export Plug-In . SVG Version: 6.00 Build 0)  -->
<svg version="1.1" id="Layer_1" xmlns="http://www.w3.org/2000/svg" xmlns:xlink="http://www.w3.org/1999/xlink" x="0px" y="0px"
	 viewBox="0 0 500 200" style="enable-background:new 0 0 500 200;" xml:space="preserve">
<style type="text/css">
	.st0{fill:#C31230;}
	.st1{fill:#231F20;}
	.st2{fill:none;stroke:#231F20;stroke-miterlimit:10;}
</style>
<g>
	<g>
		<path class="st0" d="M100.8,18.1v130.3h-10V78.7h-14v69.8h-10V18.1h10V73h14V18.1H100.8z"/>
		<path class="st0" d="M126.2,145.1c-1.9,0-3.4-5.1-4.6-15.3c-1.2-9.7-1.8-21.8-1.8-36.7c0-14.5,0.6-26.7,1.8-36.8
			s2.7-15.1,4.6-15.1c1.9,0,3.4,5.1,4.4,15.3c1.1,9.6,1.5,21.7,1.5,36.7C132.1,127.8,130.2,145.1,126.2,145.1z M136.7,51.5
			c-2.8-10.3-6.4-15.4-10.6-15.4c-4,0-7.5,5.1-10.4,15.4c-3.3,11-4.9,24.9-4.9,41.8c0,17.2,1.4,30.9,4.3,41.4
			c2.8,10.5,6.5,15.8,11,15.8c4.3,0,7.8-5.3,10.7-15.9s4.3-24.3,4.3-41.3C141.1,76,139.7,62.1,136.7,51.5z"/>
		<path class="st0" d="M187.1,34.6v113.8h-8.5V77.6l-12.3,41l-12-41v70.8H150V34.6l18.7,59.5L187.1,34.6z"/>
		<path class="st0" d="M218.8,143.6v4.8h-22.2v-111h22.2V42h-13.5v42h11v4.8h-11v54.8H218.8z"/>
	</g>
	<g>
		<path d="M306.8,14.9v133.5h-10v-83l-14.4,48l-14-48v83h-5V14.9l21.9,69.8L306.8,14.9z"/>
		<path d="M330.7,69.1l6.3,51.6h-13.4L330.7,69.1z M318,126.3l-3,22.2h5l3-22.2h14.7l2.8,22.2h10.7l-17.4-138l-15.1,110.2L318,126.3
			z"/>
		<path d="M377.3,76c-1.8-2-3.7-3.9-5.7-5.7V24.1c3.9,1.3,7,4.1,9.6,8.5c2.9,5.3,4.3,11.4,4.3,18.8C385.5,62.9,382.8,71.1,377.3,76z
			 M380.8,80.4c4-3.4,7.4-7.9,10-13.8c2.6-5.5,3.9-10.5,3.9-15.3c0-9.7-3.3-17.7-9.7-24.4c-6.4-6.5-14.4-9.8-23.8-9.8v131.2h10.4
			V77.2c9.1,10,13.8,27.4,13.8,52.3v19h10v-18.9C395.4,110.6,390.5,94.1,380.8,80.4z"/>
		<path d="M434.9,18.1v5.6h-14.5v124.7h-10V23.7h-14.1v-5.6H434.9z"/>
		<path d="M237.8,40.9c0-9,2.7-17.2,7.9-24.2c1.4-1.9,5.1-5.6,11.6-11.6l0.9-0.8L255,0c-3.5,2.6-7,5.1-10.6,7.6l0,0l0,0l0,0l0,0
			c-5.5,4.3-9.8,9.1-12.8,14c-4.2,6.8-6.3,14.1-6.3,22.2c0,8.9,3.3,21.5,9.7,37.5c6.5,16.2,9.8,27.6,9.8,33.6c0,8.2-2.5,18-7.1,29.2
			c-4.6,10.6-9.7,19.8-15.3,27.3l-0.1,0.1l-0.1,0.1l-0.7,1.3l4.6,3c9.7-13.1,16.3-22.7,19.8-28.7c7.6-13.5,11.4-26.4,11.4-38.2
			c0-6-3.3-16.6-9.6-31.5C241,62.1,237.8,50.1,237.8,40.9z"/>
	</g>
</g>
<g>
	<path class="st1" d="M433.9,146.9c-1.1,1.1-2.2,1.5-3.7,1.5c-1.4,0-2.7-0.5-3.6-1.5c-1.1-1.1-1.5-2.2-1.5-3.7
		c0-1.4,0.5-2.7,1.5-3.6c1.1-1.1,2.2-1.5,3.6-1.5s2.7,0.5,3.7,1.5c1.1,1.1,1.5,2.2,1.5,3.6C435.5,144.5,435,145.8,433.9,146.9z
		 M427.1,140c-0.8,0.8-1.3,2-1.3,3.2c0,1.3,0.5,2.3,1.3,3.2c0.8,0.9,1.9,1.3,3.2,1.3s2.3-0.5,3.2-1.3c0.8-0.9,1.3-2,1.3-3.2
		c0-1.3-0.5-2.3-1.3-3.2c-0.8-0.9-2-1.3-3.2-1.3C429,138.7,428,139.2,427.1,140z M430.2,140.3c0.7,0,1.3,0.1,1.5,0.2
		c0.6,0.2,0.9,0.7,0.9,1.4c0,0.5-0.2,0.9-0.6,1.2c-0.2,0.1-0.5,0.2-0.8,0.2c0.5,0.1,0.8,0.2,0.9,0.6c0.2,0.4,0.4,0.6,0.4,0.9v0.5
		c0,0.1,0,0.2,0,0.5c0,0.1,0,0.2,0,0.4v0.1h-0.9l0,0c0,0,0,0,0-0.1v-0.2v-0.5c0-0.7-0.2-1.1-0.6-1.3c-0.2-0.1-0.6-0.2-1.2-0.2H429
		v2.2H428v-5.7h2.2V140.3z M431.3,141.2c-0.2-0.1-0.7-0.2-1.2-0.2h-0.8v2.1h0.9c0.5,0,0.7,0,0.9-0.1c0.4-0.1,0.6-0.5,0.6-0.9
		C431.6,141.6,431.5,141.3,431.3,141.2z"/>
</g>
<line class="st2" x1="65.2" y1="165.4" x2="433.5" y2="165.4"/>
<g>
	<path class="st1" d="M64.5,197l1.2-1.4c1.8,1.6,3.5,2.5,5.8,2.5s3.9-1.2,3.9-2.9l0,0c0-1.6-0.8-2.5-4.4-3.3c-4-0.8-5.7-2.1-5.7-4.9
		l0,0c0-2.7,2.3-4.7,5.6-4.7c2.5,0,4.3,0.7,6.1,2.1l-1.2,1.5c-1.6-1.3-3.2-1.9-4.9-1.9c-2.2,0-3.6,1.2-3.6,2.8l0,0
		c0,1.6,0.9,2.6,4.7,3.4c3.9,0.8,5.6,2.2,5.6,4.9l0,0c0,2.9-2.5,4.9-5.8,4.9C68.9,199.6,66.5,198.8,64.5,197z"/>
	<path class="st1" d="M92.3,192.3v-9.9h2v9.8c0,3.7,2,5.8,5.3,5.8c3.2,0,5.1-1.9,5.1-5.6v-9.9h2v9.8c0,5-2.9,7.6-7.1,7.6
		C95.2,199.8,92.3,197.1,92.3,192.3z"/>
	<path class="st1" d="M121.7,190.9L121.7,190.9c0-4.9,3.6-8.9,8.6-8.9c3.2,0,5,1.1,6.7,2.7l-1.3,1.4c-1.4-1.4-3-2.3-5.4-2.3
		c-3.9,0-6.7,3-6.7,7l0,0c0,4,2.9,7.1,6.7,7.1c2.3,0,3.9-0.9,5.5-2.5l1.3,1.3c-1.8,1.9-3.7,3-6.9,3
		C125.4,199.8,121.7,195.8,121.7,190.9z"/>
	<path class="st1" d="M150.6,190.9L150.6,190.9c0-4.9,3.6-8.9,8.6-8.9c3.2,0,5,1.1,6.7,2.7l-1.3,1.4c-1.4-1.4-3-2.3-5.4-2.3
		c-3.9,0-6.7,3-6.7,7l0,0c0,4,2.9,7.1,6.7,7.1c2.3,0,3.9-0.9,5.5-2.5l1.3,1.3c-1.8,1.9-3.7,3-6.9,3
		C154.2,199.8,150.6,195.8,150.6,190.9z"/>
	<path class="st1" d="M180.7,182.3h12.4v1.8h-10.5v5.8h9.3v1.8h-9.3v6h10.6v1.8h-12.5V182.3z"/>
	<path class="st1" d="M207.2,197l1.2-1.4c1.8,1.6,3.5,2.5,5.8,2.5s3.9-1.2,3.9-2.9l0,0c0-1.6-0.8-2.5-4.4-3.3
		c-4-0.8-5.7-2.1-5.7-4.9l0,0c0-2.7,2.3-4.7,5.6-4.7c2.5,0,4.3,0.7,6.1,2.1l-1.2,1.5c-1.6-1.3-3.2-1.9-4.9-1.9
		c-2.2,0-3.6,1.2-3.6,2.8l0,0c0,1.6,0.9,2.6,4.7,3.4c3.9,0.8,5.6,2.2,5.6,4.9l0,0c0,2.9-2.5,4.9-5.8,4.9
		C211.5,199.6,209.3,198.8,207.2,197z"/>
	<path class="st1" d="M233.9,197l1.2-1.4c1.8,1.6,3.5,2.5,5.8,2.5s3.9-1.2,3.9-2.9l0,0c0-1.6-0.8-2.5-4.4-3.3
		c-4-0.8-5.7-2.1-5.7-4.9l0,0c0-2.7,2.3-4.7,5.6-4.7c2.5,0,4.3,0.7,6.1,2.1l-1.2,1.5c-1.6-1.3-3.2-1.9-4.9-1.9
		c-2.2,0-3.6,1.2-3.6,2.8l0,0c0,1.6,0.9,2.6,4.7,3.4c3.9,0.8,5.6,2.2,5.6,4.9l0,0c0,2.9-2.5,4.9-5.8,4.9
		C238.3,199.6,236,198.8,233.9,197z"/>
	<path class="st1" d="M280.6,182.3h7.4c2.1,0,3.9,0.6,4.9,1.8c0.8,0.8,1.3,2,1.3,3.4l0,0c0,2.8-2,4.6-4.7,5l5.3,7h-2.3l-5-6.7h-4.9
		v6.7h-2v-17.2H280.6z M287.9,191c2.6,0,4.4-1.3,4.4-3.5l0,0c0-2.1-1.6-3.4-4.4-3.4h-5.4v7h5.4V191z"/>
	<path class="st1" d="M309.6,182.3H322v1.8h-10.5v5.8h9.3v1.8h-9.3v6h10.6v1.8h-12.5V182.3z"/>
	<path class="st1" d="M343.7,182.1h1.9l7.8,17.3h-2.1l-2-4.6H340l-2,4.6h-2L343.7,182.1z M348.4,193.1l-3.9-8.8l-4,8.8H348.4z"/>
	<path class="st1" d="M367.9,182.3h2v15.4h9.7v1.8H368v-17.2H367.9z"/>
	<path class="st1" d="M396.5,184.1h-5.7v-1.8h13.4v1.8h-5.7v15.4h-2V184.1z"/>
	<path class="st1" d="M424.4,192.6l-7.1-10.4h2.3l5.8,8.5l5.8-8.5h2.2l-7.1,10.4v6.8h-2L424.4,192.6L424.4,192.6z"/>
</g>
</svg>
